<?xml version="1.0" standalone="no"?>
<!DOCTYPE svg PUBLIC "-//W3C//DTD SVG 20010904//EN"
 "http://www.w3.org/TR/2001/REC-SVG-20010904/DTD/svg10.dtd">
<svg version="1.0" xmlns="http://www.w3.org/2000/svg"
 width="1024.000000pt" height="576.000000pt" viewBox="0 0 1024.000000 576.000000"
 preserveAspectRatio="xMidYMid meet">

<g transform="translate(0.000000,576.000000) scale(0.100000,-0.100000)"
fill="#000000" stroke="none">
<path d="M6161 4587 c-13 -21 -12 -21 5 -5 10 10 16 20 13 22 -3 3 -11 -5 -18
-17z"/>
<path d="M7031 4594 c-1 -6 7 -18 16 -25 11 -10 14 -10 9 -1 -4 6 -2 12 3 12
6 0 11 5 11 11 0 8 -4 8 -14 0 -11 -9 -15 -9 -19 1 -3 8 -6 8 -6 2z"/>
<path d="M6972 4557 c-8 -10 -6 -13 7 -13 11 0 17 6 14 13 -3 7 -6 13 -8 13
-1 0 -7 -6 -13 -13z"/>
<path d="M7406 4383 c-4 -43 -13 -107 -19 -143 l-12 -65 -34 48 c-33 45 -51
58 -51 38 0 -6 4 -13 10 -16 5 -3 23 -26 40 -50 l30 -43 -20 -65 c-11 -36 -27
-82 -36 -104 l-17 -38 -17 87 c-35 170 -138 311 -280 382 -157 78 -221 21
-120 -109 22 -28 46 -68 55 -88 21 -50 19 -142 -5 -246 -10 -47 -21 -97 -22
-111 l-3 -25 -330 2 -330 2 -27 37 c-32 42 -34 66 -12 119 8 20 13 40 10 43
-3 2 -14 -15 -24 -39 -22 -51 -25 -48 -62 64 l-23 68 32 44 c18 25 28 45 24
45 -5 0 -20 -14 -33 -32 -23 -31 -23 -31 -32 -9 -4 13 -11 61 -15 107 -3 47
-10 87 -15 90 -11 7 -10 -19 3 -111 6 -42 8 -79 6 -82 -3 -2 -23 15 -46 38
-23 24 -41 40 -41 36 0 -17 34 -58 64 -77 26 -15 36 -32 49 -80 9 -33 17 -64
17 -70 0 -14 -58 16 -92 48 -16 14 -28 21 -28 15 0 -18 70 -71 102 -78 26 -6
55 -48 106 -157 2 -3 -14 -2 -35 3 -44 10 -79 12 -70 3 3 -3 29 -12 59 -19
l53 -13 -91 -1 -91 -1 -18 -52 c-12 -37 -19 -103 -24 -213 -6 -139 -10 -166
-31 -208 -54 -114 -168 -204 -482 -385 -307 -178 -437 -271 -539 -387 -112
-128 -159 -244 -167 -409 -10 -216 52 -410 221 -698 28 -49 54 -88 58 -88 3 0
25 46 50 101 116 269 345 605 472 691 80 54 254 140 357 176 165 57 257 73
439 75 l166 2 3 112 3 112 57 -29 c86 -43 174 -62 289 -64 l102 -1 3 -65 3
-65 150 -2 c129 -2 166 -6 266 -32 185 -46 338 -112 495 -213 118 -75 310
-339 439 -603 40 -82 76 -160 80 -172 3 -13 10 -23 14 -23 10 0 90 137 149
255 96 192 132 329 132 497 0 246 -100 419 -355 610 -73 55 -147 101 -470 289
-206 120 -308 208 -363 314 -23 45 -26 65 -33 210 -7 166 -27 265 -54 265 -7
0 -15 5 -17 11 -3 9 -9 9 -25 0 -12 -6 -42 -11 -67 -11 -46 0 -46 0 -46 35 0
20 11 57 24 84 20 39 33 51 68 64 46 18 118 72 118 88 0 6 -19 -5 -42 -23 -44
-35 -97 -62 -105 -54 -9 9 42 161 56 170 26 15 101 93 101 104 0 6 -23 -12
-51 -40 -27 -27 -52 -48 -55 -45 -3 3 -1 31 5 63 17 102 22 184 13 184 -5 0
-13 -35 -16 -77z m-378 -135 c11 -29 25 -66 32 -83 l11 -30 35 40 c33 37 20
13 -21 -39 -18 -24 -15 -27 -48 59 -40 105 -40 105 -34 105 3 0 14 -24 25 -52z
m61 -188 c0 -9 -4 -8 -9 5 -5 11 -9 27 -9 35 0 9 4 8 9 -5 5 -11 9 -27 9 -35z
m29 -140 c0 -14 -6 2 -14 35 -7 33 -13 67 -12 75 1 23 26 -82 26 -110z m-118
-55 c13 -14 19 -25 14 -25 -8 1 -50 50 -41 50 2 0 14 -11 27 -25z m127 -12
c-3 -10 -5 -4 -5 12 0 17 2 24 5 18 2 -7 2 -21 0 -30z m-258 -252 c91 -47 199
-79 298 -88 l72 -6 27 -71 c15 -39 32 -84 39 -101 l12 -30 8 28 c4 15 5 50 3
77 -4 44 -3 49 18 54 57 15 127 -43 150 -122 38 -131 -28 -254 -152 -284 -49
-12 -49 -12 -94 -102 -51 -105 -150 -213 -236 -258 -145 -77 -346 -78 -497 -2
-84 43 -188 156 -239 261 -43 89 -43 89 -92 101 -124 30 -190 153 -152 284 23
79 93 137 150 122 20 -5 22 -10 18 -57 -2 -29 1 -63 6 -77 8 -22 13 -16 60 76
l52 100 69 33 c81 39 176 121 222 191 l32 49 75 -69 c43 -40 107 -86 151 -109z"/>
<path d="M6470 3271 c0 -35 46 -71 90 -71 22 0 80 50 80 69 0 19 -21 12 -42
-14 -11 -14 -30 -25 -43 -25 -13 0 -32 11 -43 25 -20 25 -42 33 -42 16z"/>
<path d="M6890 3269 c0 -19 58 -69 80 -69 39 0 89 37 90 68 0 20 -21 14 -42
-13 -11 -14 -30 -25 -43 -25 -13 0 -32 11 -43 25 -21 26 -42 33 -42 14z"/>
<path d="M6746 3200 c5 -28 2 -47 -10 -64 -24 -38 -21 -71 9 -84 36 -16 65
-15 65 3 0 9 -9 15 -25 15 -32 0 -41 23 -21 52 18 26 21 70 6 99 -18 33 -31
22 -24 -21z"/>
<path d="M6430 3129 c12 -8 9 -9 -13 -5 -38 9 -67 -9 -67 -40 0 -20 4 -25 16
-20 11 4 15 2 11 -8 -11 -29 86 -34 122 -7 46 35 7 91 -62 91 -18 0 -19 -2 -7
-11z m47 -45 c-3 -3 -12 -4 -19 -1 -8 3 -5 6 6 6 11 1 17 -2 13 -5z m8 -33
c-3 -6 -14 -10 -23 -10 -15 1 -15 2 1 6 9 2 17 9 17 15 0 6 3 9 6 5 3 -3 3
-10 -1 -16z"/>
<path d="M7040 3127 c-37 -19 -38 -58 -1 -80 32 -19 101 -23 101 -6 0 6 -7 8
-17 4 -15 -5 -16 -4 -5 6 17 18 15 42 -3 35 -8 -3 -15 -1 -15 5 0 20 35 3 38
-19 4 -24 10 -26 31 -13 21 13 6 56 -24 69 -33 15 -74 15 -105 -1z m31 -44
c-8 -15 -10 -15 -11 -2 0 17 10 32 18 25 2 -3 -1 -13 -7 -23z"/>
<path d="M6670 2951 c0 -5 12 -23 26 -40 36 -43 93 -44 135 -2 16 16 29 34 29
40 0 18 -28 12 -35 -7 -3 -11 -17 -24 -32 -31 -32 -15 -79 1 -88 30 -6 19 -35
27 -35 10z"/>
<path d="M7517 4343 c-10 -9 -9 -23 2 -23 5 0 11 7 15 15 5 15 -5 20 -17 8z"/>
<path d="M7265 4290 c3 -5 11 -10 16 -10 6 0 7 5 4 10 -3 6 -11 10 -16 10 -6
0 -7 -4 -4 -10z"/>
<path d="M5975 4280 c3 -5 8 -10 11 -10 2 0 4 5 4 10 0 6 -5 10 -11 10 -5 0
-7 -4 -4 -10z"/>
<path d="M6175 4240 c-3 -5 -2 -10 4 -10 5 0 13 5 16 10 3 6 2 10 -4 10 -5 0
-13 -4 -16 -10z"/>
<path d="M6230 4065 c-8 -9 -8 -15 -2 -15 12 0 26 19 19 26 -2 2 -10 -2 -17
-11z"/>
<path d="M6060 3880 c0 -6 7 -10 15 -10 8 0 15 2 15 4 0 2 -7 6 -15 10 -8 3
-15 1 -15 -4z"/>
<path d="M4377 3254 c-4 -4 -7 -27 -7 -51 l0 -43 -45 0 -45 0 0 -45 0 -45 44
0 45 0 3 -46 3 -47 45 -1 45 -1 3 48 3 47 45 0 44 0 0 45 0 45 -44 0 -45 0 -3
48 -3 47 -40 3 c-23 2 -44 0 -48 -4z"/>
<path d="M9080 3210 l0 -50 -45 0 -45 0 0 -45 0 -45 44 0 45 0 3 -46 3 -46 42
-2 42 -2 3 45 3 46 48 3 47 3 0 44 0 44 -47 3 -48 3 -3 48 -3 47 -45 0 -44 0
0 -50z"/>
<path d="M5410 3186 c0 -19 -5 -26 -20 -26 -15 0 -20 -7 -20 -25 0 -18 5 -25
19 -25 13 0 21 -8 23 -22 2 -17 10 -23 28 -23 20 0 24 4 22 23 -3 18 2 22 22
22 21 0 26 5 26 24 0 18 -6 25 -22 28 -15 2 -23 10 -23 23 0 14 -8 21 -27 23
-24 3 -28 0 -28 -22z"/>
<path d="M8080 3185 c0 -20 -5 -25 -26 -25 -21 0 -25 -4 -22 -22 2 -15 11 -24
25 -26 14 -2 23 -11 25 -25 2 -14 11 -23 26 -25 18 -3 22 1 22 22 0 21 5 26
25 26 34 0 37 47 3 52 -15 2 -24 11 -26 26 -5 34 -52 31 -52 -3z"/>
<path d="M4554 2929 c-10 -17 13 -36 27 -22 12 12 4 33 -11 33 -5 0 -12 -5
-16 -11z"/>
<path d="M8965 2930 c-10 -16 7 -31 23 -21 10 6 10 10 -2 20 -10 9 -16 9 -21
1z"/>
<path d="M4743 2613 c-7 -2 -13 -16 -13 -29 0 -19 -5 -24 -25 -24 -20 0 -25
-5 -25 -25 0 -20 5 -25 24 -25 19 0 25 -6 28 -27 2 -20 9 -29 25 -31 17 -3 22
2 25 25 2 22 9 29 31 31 21 3 27 9 27 27 0 18 -6 24 -27 27 -22 2 -28 8 -28
28 0 24 -17 34 -42 23z"/>
<path d="M8760 2585 c0 -20 -5 -25 -25 -25 -20 0 -25 -5 -25 -25 0 -20 5 -25
24 -25 19 0 25 -6 28 -27 2 -22 8 -28 28 -28 20 0 25 5 25 25 0 20 6 26 28 28
21 3 27 9 27 28 0 19 -5 24 -25 24 -20 0 -25 5 -25 25 0 21 -5 25 -30 25 -25
0 -30 -4 -30 -25z"/>
<path d="M4560 2286 c0 -7 -9 -16 -20 -19 -11 -3 -20 -12 -20 -21 0 -9 8 -16
20 -16 11 0 20 -7 20 -15 0 -8 7 -15 15 -15 8 0 15 7 15 15 0 8 9 15 20 15 13
0 20 7 20 20 0 13 -7 20 -20 20 -11 0 -20 7 -20 15 0 8 -7 15 -15 15 -8 0 -15
-6 -15 -14z"/>
<path d="M8950 2285 c0 -8 -7 -15 -15 -15 -8 0 -15 -9 -15 -20 0 -11 7 -20 15
-20 8 0 15 -7 15 -15 0 -8 9 -15 20 -15 11 0 20 7 20 15 0 8 7 15 15 15 8 0
15 9 15 20 0 11 -7 20 -15 20 -8 0 -15 7 -15 15 0 8 -9 15 -20 15 -11 0 -20
-7 -20 -15z"/>
<path d="M4110 1895 c0 -19 -5 -25 -23 -25 -16 0 -23 -6 -23 -20 0 -14 7 -20
23 -20 17 0 23 -6 23 -23 0 -13 3 -26 6 -29 12 -12 43 5 46 26 2 13 10 21 23
21 13 0 21 8 23 23 3 18 -1 22 -22 22 -21 0 -26 5 -26 25 0 20 -5 25 -25 25
-20 0 -25 -5 -25 -25z"/>
<path d="M9388 1898 c-2 -15 -11 -24 -25 -26 -15 -2 -23 -10 -23 -22 0 -12 8
-20 23 -22 15 -2 23 -11 25 -29 2 -21 7 -26 23 -22 10 3 19 14 19 24 0 18 10
23 38 20 7 -1 12 9 12 23 0 18 -6 25 -22 28 -15 2 -24 11 -26 26 -2 14 -10 22
-22 22 -12 0 -20 -8 -22 -22z"/>
<path d="M6121 944 c0 -11 3 -14 6 -6 3 7 2 16 -1 19 -3 4 -6 -2 -5 -13z"/>
<path d="M7068 633 c6 -2 18 -2 25 0 6 3 1 5 -13 5 -14 0 -19 -2 -12 -5z"/>
<path d="M7121 544 c-1 -11 6 -29 15 -40 8 -10 12 -13 9 -6 -4 8 -11 26 -15
40 -7 22 -8 23 -9 6z"/>
</g>
</svg>
